<svg width="201" height="356" viewBox="0 0 201 356" fill="none" xmlns="http://www.w3.org/2000/svg">
<rect x="1" width="200" height="355.714" fill="#023047"/>
<path d="M93.3334 38H95C91.75 47.7333 91.75 58.2667 95 68H93.3334M105 38C108.25 47.7333 108.25 58.2667 105 68M85 59.6667V58C94.7334 61.25 105.267 61.25 115 58V59.6667M85 48C94.7334 44.75 105.267 44.75 115 48M116.667 53C116.667 62.2048 109.205 69.6667 100 69.6667C90.7953 69.6667 83.3334 62.2048 83.3334 53C83.3334 43.7953 90.7953 36.3333 100 36.3333C109.205 36.3333 116.667 43.7953 116.667 53Z" stroke="#FFB703" stroke-width="1.5" stroke-linecap="round" stroke-linejoin="round"/>
<path d="M32.0505 199V171H45.7305C49.2505 171 51.8905 171.667 53.6505 173C55.4371 174.333 56.3305 176.093 56.3305 178.28C56.3305 179.747 55.9705 181.027 55.2505 182.12C54.5305 183.187 53.5438 184.013 52.2905 184.6C51.0371 185.187 49.5971 185.48 47.9705 185.48L48.7305 183.84C50.4905 183.84 52.0505 184.133 53.4105 184.72C54.7705 185.28 55.8238 186.12 56.5705 187.24C57.3438 188.36 57.7305 189.733 57.7305 191.36C57.7305 193.76 56.7838 195.64 54.8905 197C52.9971 198.333 50.2105 199 46.5305 199H32.0505ZM38.4905 194.12H46.0505C47.7305 194.12 48.9971 193.853 49.8505 193.32C50.7305 192.76 51.1705 191.88 51.1705 190.68C51.1705 189.507 50.7305 188.64 49.8505 188.08C48.9971 187.493 47.7305 187.2 46.0505 187.2H38.0105V182.48H44.9305C46.5038 182.48 47.7038 182.213 48.5305 181.68C49.3838 181.12 49.8105 180.28 49.8105 179.16C49.8105 178.067 49.3838 177.253 48.5305 176.72C47.7038 176.16 46.5038 175.88 44.9305 175.88H38.4905V194.12ZM62.6364 199V171H74.7564C77.2631 171 79.4231 171.413 81.2364 172.24C83.0497 173.04 84.4497 174.2 85.4364 175.72C86.4231 177.24 86.9164 179.053 86.9164 181.16C86.9164 183.24 86.4231 185.04 85.4364 186.56C84.4497 188.053 83.0497 189.2 81.2364 190C79.4231 190.8 77.2631 191.2 74.7564 191.2H66.2364L69.1164 188.36V199H62.6364ZM80.4364 199L73.4364 188.84H80.3564L87.4364 199H80.4364ZM69.1164 189.08L66.2364 186.04H74.3964C76.3964 186.04 77.8897 185.613 78.8764 184.76C79.8631 183.88 80.3564 182.68 80.3564 181.16C80.3564 179.613 79.8631 178.413 78.8764 177.56C77.8897 176.707 76.3964 176.28 74.3964 176.28H66.2364L69.1164 173.2V189.08ZM98.0105 182.28H111.49V187.32H98.0105V182.28ZM98.4905 193.8H113.73V199H92.0505V171H113.21V176.2H98.4905V193.8ZM126.896 199L114.816 171H121.816L132.376 195.8H128.256L138.976 171H145.416L133.296 199H126.896ZM153.714 182.28H167.194V187.32H153.714V182.28ZM154.194 193.8H169.434V199H147.754V171H168.914V176.2H154.194V193.8Z" fill="#FFB703"/>
<path d="M86.8051 130.26H94.2051V131.52H86.8051V130.26ZM86.9651 136.72H95.3851V138H85.4851V124H95.0851V125.28H86.9651V136.72ZM111.684 127.4C112.537 127.4 113.277 127.567 113.904 127.9C114.544 128.22 115.037 128.713 115.384 129.38C115.744 130.047 115.924 130.887 115.924 131.9V138H114.504V132.04C114.504 130.933 114.237 130.1 113.704 129.54C113.184 128.967 112.444 128.68 111.484 128.68C110.764 128.68 110.137 128.833 109.604 129.14C109.084 129.433 108.677 129.867 108.384 130.44C108.104 131 107.964 131.68 107.964 132.48V138H106.544V132.04C106.544 130.933 106.277 130.1 105.744 129.54C105.211 128.967 104.464 128.68 103.504 128.68C102.797 128.68 102.177 128.833 101.644 129.14C101.111 129.433 100.697 129.867 100.404 130.44C100.124 131 99.984 131.68 99.984 132.48V138H98.564V127.5H99.924V130.34L99.704 129.84C100.024 129.08 100.537 128.487 101.244 128.06C101.964 127.62 102.811 127.4 103.784 127.4C104.811 127.4 105.684 127.66 106.404 128.18C107.124 128.687 107.591 129.453 107.804 130.48L107.244 130.26C107.551 129.407 108.091 128.72 108.864 128.2C109.651 127.667 110.591 127.4 111.684 127.4Z" fill="#FFB703"/>
<line x1="31" y1="94.5" x2="170" y2="94.5" stroke="#FFB703"/>
<line x1="32" y1="239.5" x2="171" y2="239.5" stroke="#FFB703"/>
</svg>
