<svg width="50" height="50" viewBox="0 0 50 50" fill="none" xmlns="http://www.w3.org/2000/svg">
<path d="M16.6667 6.25001H18.75C14.6875 18.4167 14.6875 31.5833 18.75 43.75H16.6667M31.25 6.25001C35.3125 18.4167 35.3125 31.5833 31.25 43.75M6.24999 33.3333V31.25C18.4167 35.3125 31.5833 35.3125 43.75 31.25V33.3333M6.24999 18.75C18.4167 14.6875 31.5833 14.6875 43.75 18.75M45.8333 25C45.8333 36.5059 36.5059 45.8333 25 45.8333C13.4941 45.8333 4.16666 36.5059 4.16666 25C4.16666 13.4941 13.4941 4.16667 25 4.16667C36.5059 4.16667 45.8333 13.4941 45.8333 25Z" stroke="#FDF0D5" stroke-width="1.5" stroke-linecap="round" stroke-linejoin="round"/>
</svg>
